<svg viewBox="0 0 430 112" xmlns="http://www.w3.org/2000/svg" role="img" aria-label="GAPOKTAN Sukorejo — Dokumentasi Hasil Panen">
  <defs>
    <linearGradient id="icon" x1="0" y1="0" x2="1" y2="1">
      <stop offset="0" stop-color="#22A24C"/>
      <stop offset="1" stop-color="#0F5C2E"/>
    </linearGradient>
  </defs>

  <!-- App icon -->
  <rect x="8" y="8" width="96" height="96" rx="26" fill="url(#icon)"/>
  <rect x="8" y="8" width="96" height="96" rx="26" fill="none" stroke="#F5C518" stroke-width="3"/>

  <!-- sun -->
  <circle cx="56" cy="34" r="8" fill="#F5C518"/>
  <g stroke="#F5C518" stroke-width="2.6" stroke-linecap="round">
    <line x1="56" y1="20" x2="56" y2="15"/>
    <line x1="43" y1="26" x2="39" y2="22"/>
    <line x1="69" y1="26" x2="73" y2="22"/>
  </g>

  <!-- sprout -->
  <path d="M56 92 C 56 78 56 62 56 50" fill="none" stroke="#FFFFFF" stroke-width="5.5" stroke-linecap="round"/>
  <path d="M56 76 C 40 74 32 60 34 48 C 49 51 55 63 56 76 Z" fill="#FFFFFF"/>
  <path d="M56 76 C 72 74 80 60 78 48 C 63 51 57 63 56 76 Z" fill="#EAF6EE"/>

  <!-- field row -->
  <line x1="40" y1="92" x2="72" y2="92" stroke="#F5C518" stroke-width="2.4" stroke-linecap="round" opacity="0.85"/>

  <!-- Wordmark -->
  <text x="122" y="50" font-family="'Segoe UI', Arial, sans-serif" font-size="27" font-weight="800" letter-spacing="0.5" fill="#0F5C2E">GAPOKTAN SUKOREJO</text>
  <text x="123" y="75" font-family="'Segoe UI', Arial, sans-serif" font-size="14.5" font-weight="600" letter-spacing="0.2" fill="#4B7A57">Dokumentasi Hasil Panen Pertanian</text>
  <text x="124" y="94" font-family="'Segoe UI', Arial, sans-serif" font-size="11.5" font-weight="700" letter-spacing="3" fill="#C99A2C">KABUPATEN GRESIK</text>
</svg>
